<svg version="1.1" id="Layer_1" xmlns="http://www.w3.org/2000/svg" xmlns:xlink="http://www.w3.org/1999/xlink" x="0px" y="0px" viewBox="7.050000190734863 7.050000190734863 485.9000244140625 485.9000244140625" enable-background="new 0 0 500 500" xml:space="preserve">
<path id="XMLID_270_" fill="#003063" d="M492.95,250c0,134.15-108.7,242.89-242.87,242.95c-0.02-0.02-0.05-0.05-0.08-0.07
	c37.76-39.48,60.93-92.93,60.93-151.88c0-21.37-3.05-42.03-8.76-61.57c-9.98-34.31-28.1-65.15-52.17-90.28
	c39.99-41.83,96.37-67.88,158.8-67.88c4.53,0,9.03,0.13,13.47,0.42c2.17,0.12,4.35,0.28,6.51,0.49c2.9,0.26,5.82,0.6,8.69,0.98
	c1.4,0.16,2.77,0.36,4.14,0.57c0.65,0.1,1.29,0.18,1.94,0.31c1.48,0.21,2.95,0.47,4.42,0.75c1.94,0.34,3.85,0.7,5.76,1.12
	c1.61,0.34,3.21,0.7,4.81,1.06c0.36,0.07,0.75,0.17,1.11,0.25C480.82,163.24,492.95,205.2,492.95,250z"></path>
<path id="XMLID_272_" fill="#00A6ED" d="M310.93,341c0,58.95-23.17,112.4-60.93,151.88c-0.03,0.02-0.05,0.05-0.08,0.07
	C115.78,492.89,7.05,384.15,7.05,250c0-44.16,11.79-85.54,32.36-121.21c22.13,74.35,82.57,132.18,158.42,150.64
	c16.73,4.08,34.2,6.25,52.17,6.25c17.97,0,35.44-2.18,52.17-6.25C307.88,298.96,310.93,319.62,310.93,341z"></path>
<path id="XMLID_373_" fill="#0069C7" d="M459.65,127.21c-0.36-0.08-0.75-0.18-1.11-0.25c-1.6-0.36-3.2-0.72-4.81-1.06
	c-1.91-0.42-3.82-0.78-5.76-1.12c-1.47-0.28-2.94-0.54-4.42-0.75c-0.65-0.12-1.29-0.2-1.94-0.31c-1.37-0.21-2.74-0.41-4.14-0.57
	c-2.87-0.38-5.79-0.72-8.69-0.98c-2.17-0.2-4.34-0.36-6.51-0.49c-4.44-0.29-8.94-0.42-13.47-0.42c-62.43,0-118.81,26.06-158.8,67.88
	c-24.04,25.13-42.19,55.97-52.17,90.28c-75.85-18.46-136.28-76.29-158.42-150.64C81.4,56.02,159.99,7.05,250,7.05
	C339.39,7.05,417.48,55.32,459.65,127.21z"></path>
</svg>